<?xml version="1.0" encoding="UTF-8" standalone="no"?>
<svg
   xmlns:dc="http://purl.org/dc/elements/1.1/"
   xmlns:cc="http://creativecommons.org/ns#"
   xmlns:rdf="http://www.w3.org/1999/02/22-rdf-syntax-ns#"
   xmlns:svg="http://www.w3.org/2000/svg"
   xmlns="http://www.w3.org/2000/svg"
   xml:space="preserve"
   viewBox="0 0 256 256"
   height="256"
   width="256"
   y="0px"
   x="0px"
   id="Layer_1"
   version="1.1"><metadata
   id="metadata20090"><rdf:RDF><cc:Work
       rdf:about=""><dc:format>image/svg+xml</dc:format><dc:type
         rdf:resource="http://purl.org/dc/dcmitype/StillImage" /><dc:title></dc:title></cc:Work></rdf:RDF></metadata><defs
   id="defs20088" />

<path
   id="path20174"
   d="m 8,72 v 32 h 8 v 40 h 8 v 8 h 8 v 8 h -8 v 8 h -8 v 8 H 8 v 8 H 0 v 64 h 40 v -8 h 8 v -8 h 8 v 8 h 8 v 8 h 16 v 8 h 88 v -8 h 16 v -8 h 8 v -8 h 8 v -8 h 8 v -16 h 16 v -8 h 8 v -8 h 8 v -8 h 16 v -24 h -16 v -8 h -8 v -48 h -8 V 96 72 h -8 v -8 h -8 v -8 h -8 v -8 h -8 V 40 H 24 v 8 h -8 v 8 H 8 Z"
   style="fill:#808000;fill-opacity:1;stroke:none;stroke-width:8px;stroke-linecap:butt;stroke-linejoin:miter;stroke-opacity:1" /><path
   id="path20176"
   d="m 16,72 v 24 h 8 v 40 h 16 v 8 h 8 v 16 h -8 v 16 H 24 v 8 h -8 c 0,0 0,8 0,8 H 8 v 48 h 24 v -8 h 8 v -16 h 16 v 8 h 8 v 8 h 8 v 8 h 16 v 8 h 72 v -8 h 16 v -8 h 8 v -8 h 8 v -8 h 8 v -16 h 8 v -56 h 8 v -40 h -8 V 88 80 h -8 v -8 h -8 v -8 h -8 V 56 H 160 V 48 H 16 Z"
   style="fill:#000000;fill-opacity:1;stroke:none;stroke-width:8px;stroke-linecap:butt;stroke-linejoin:miter;stroke-opacity:1" /><path
   id="path20178"
   d="m 24,80 v 8 h 8 v 40 h 16 v 8 h 8 v 32 h -8 v 16 H 32 v 8 h -8 v 8 h -8 v 32 h 8 v -8 h 8 v -16 h 32 v 8 h 8 v 8 h 8 v 8 h 16 v 8 h 56 v -8 h 16 v -8 h 8 v -8 h 8 v -8 h 8 v -16 h 8 v -48 h 8 v -32 h -8 V 96 H 152 V 56 h -24 v 8 h -8 v 8 h -16 v 8 H 88 v 8 h -8 v 16 h -8 l 2e-6,16 h -8 v 8 H 56 v -8 H 48 V 104 H 40 V 88 h -8 v -8 z"
   style="fill:#800000;fill-opacity:1;stroke:none;stroke-width:8px;stroke-linecap:butt;stroke-linejoin:miter;stroke-opacity:1" /><path
   id="path20180"
   d="m 88,96 h 80 v 24 h 8 v 16 h 8 v 48 h -8 v 8 h -8 v 16 h -8 v 8 h -16 v 8 h -8 v -8 h -16 v -8 H 88 v -8 h 8 v -96 h -8 z"
   style="fill:#000000;fill-opacity:1;stroke:none;stroke-width:8px;stroke-linecap:butt;stroke-linejoin:miter;stroke-opacity:1" /><path
   id="path20182"
   d="m 72,136 h 32 v -32 h 8 v 8 h 56 v 24 h 8 v 40 l -8,8 v 8 h -8 v 16 h -16 v 8 h -8 v -8 h -16 v -8 H 72 Z"
   style="fill:#808000;fill-opacity:1;stroke:none;stroke-width:8px;stroke-linecap:butt;stroke-linejoin:miter;stroke-opacity:1" /><path
   id="path20184"
   d="m 40,208 v -32 h 16 v -8 h 8 v -8 h 8 v -8 h 8 v -8 h 8 v -8 -16 h 8 v -8 h 16 v -8 h 8 v -8 h 8 v -8 h 8 v -8 h 8 v -8 h 8 v -8 h 8 v -8 h 8 V 40 h -8 V 24 h 8 v -8 h 8 v 8 h 8 v 8 h 8 v 8 h 8 v -8 h 8 v -8 h 8 v -8 h 8 V 0 h 24 v 8 h 8 v 24 h -16 v 8 h -8 v 8 h -8 v 8 h -8 v 8 h 8 v 8 h 8 v 8 h 8 v 8 h -8 v 8 h -16 v -8 h -24 v 8 h -8 v 8 h -8 v 8 h -8 v 8 h -16 v 8 h -8 v 8 h -8 v 8 h -8 v 8 h -16 v 8 h -8 v 8 h -8 v 8 h -8 v 8 h -8 v 8 h -8 v 16 z"
   style="fill:#000000;fill-opacity:1;stroke:none;stroke-width:8px;stroke-linecap:butt;stroke-linejoin:miter;stroke-opacity:1" /><path
   id="path20188"
   d="m 48,200 v -16 h 8 v -8 h 8 v -8 h 8 v -8 h 8 v -8 h 8 v -16 h 8 v -8 h 8 v -8 h 8 v -8 h 8 v -8 h 8 v -8 h 8 v -8 h 8 v -8 h 8 v -8 h 8 v -8 h 8 v -8 h 8 v 8 h 8 v 8 h 8 v 16 h -8 v 8 h -8 v 8 h -8 v 8 h -16 v 8 h -8 v 8 h -8 v 8 h -8 v 8 h -8 v 8 h -8 v 8 h -8 v 8 H 80 v 16 h -8 v 8 h -8 v 8 z"
   style="fill:#ffffff;fill-opacity:1;stroke:none;stroke-width:8px;stroke-linecap:butt;stroke-linejoin:miter;stroke-opacity:1" /><path
   id="path20192"
   d="m 120,144 v -8 h 8 v -8 h 8 v -8 h 8 v -8 h 8 v -8 h 8 v -8 h 16 v -8 h 8 v -8 h 8 v 8 h -8 v 8 h -8 v 8 h -8 v 8 h -16 v 8 h -8 v 8 h -8 v 8 h -8 v 8 z"
   style="fill:#c0c0c0;fill-opacity:1;stroke:none;stroke-width:8px;stroke-linecap:butt;stroke-linejoin:miter;stroke-opacity:1" /><path
   id="path20190"
   d="m 48,200 v -8 h 8 v -8 h 8 v -8 h 8 v -8 h 8 v -8 h 8 v -8 h 8 v -8 h 8 v -8 h 8 v -8 h 8 v -8 h 8 v -8 h 8 v -8 h 8 v -8 h 8 v -8 h 8 v -8 h 8 v -8 h 8 v -8 h -8 v -8 h 8 v 8 h 8 v 16 h -16 v 8 h -8 v 8 h -8 c 0,0 0,8 0,8 h -8 v 8 h -8 v 8 h -8 v 8 h -8 v 8 h -8 v 8 h -8 v 8 h -8 v 8 h -8 v 8 h -8 v 8 h -8 v 8 h -8 v 16 z"
   style="fill:#c0c0c0;fill-opacity:1;stroke:none;stroke-width:8px;stroke-linecap:butt;stroke-linejoin:miter;stroke-opacity:1" /><path
   id="path20198"
   d="m 64,144 v -8 h 8 v -8 h 24 v 8 h 8 v -8 h 8 v 8 h 8 v 8 h 8 v 8 h 8 v 8 h 80 v -16 h 8 v 8 h 8 v 8 h 8 v 8 h 16 v 8 h -16 v 8 h -8 v 8 h -8 v 8 h -8 v -16 h -88 v 8 h -8 v 16 H 64 v -16 h 8 v -8 h 8 v -24 h -8 v -16 z"
   style="fill:#000000;fill-opacity:1;stroke:none;stroke-width:8px;stroke-linecap:butt;stroke-linejoin:miter;stroke-opacity:1" /><path
   id="path20137"
   d="m 0,56 h 8 v -8 h 8 v -8 h 16 v -8 h 8 V 16 h 8 V 8 h 8 V 0 h 8 v 8 h 8 v 8 h 8 v 16 h 8 v 8 h 16 v 8 h 16 v 8 h 8 v 8 h -8 v 8 h -16 v 8 H 88 v 8 h -8 v 16 h -8 v 16 h -8 v 8 h -8 v -8 H 48 V 104 H 40 V 88 H 32 V 80 H 16 V 72 H 8 V 64 H 0 Z"
   style="fill:#000000;fill-opacity:1;stroke:none;stroke-width:8px;stroke-linecap:butt;stroke-linejoin:miter;stroke-opacity:1" /><path
   id="path20139"
   d="m 8,56 h 8 v -8 h 16 v -8 h 8 v -8 h 8 V 16 h 8 V 8 h 8 v 8 h 8 v 16 h 8 v 8 h 8 v 8 h 16 v 8 h 16 v 8 h -16 v 8 H 88 v 8 h -8 v 8 h -8 v 16 h -8 v 16 h -8 c 0,0 0,-16 0,-16 H 48 V 88 H 40 V 80 H 32 V 72 H 16 V 64 H 8 Z"
   style="fill:#0000ff;fill-opacity:1;stroke:none;stroke-width:8px;stroke-linecap:butt;stroke-linejoin:miter;stroke-opacity:1" /><path
   id="path20110"
   d="m 24,56 h 16 v -8 h 8 v -8 h 8 V 24 h 8 v 16 h 8 v 8 h 8 v 8 h 16 v 8 H 80 v 8 h -8 v 8 h -8 v 16 c 0,0 -8,0 -8,0 V 80 H 48 V 72 H 40 V 64 H 24 Z"
   style="fill:#c0c0c0;fill-opacity:1;stroke:none;stroke-width:8px;stroke-linecap:butt;stroke-linejoin:miter;stroke-opacity:1" /><path
   id="path20114"
   d="m 40,56 h 8 v -8 h 8 v -8 h 8 v 8 h 8 v 8 h 8 v 8 h -8 v 8 h -8 v 8 h -8 v -8 h -8 v -8 h -8 z"
   style="fill:#ffffff;fill-opacity:1;stroke:none;stroke-width:8px;stroke-linecap:butt;stroke-linejoin:miter;stroke-opacity:1" /><path
   id="path20186"
   d="m 248,0 h 8 v 8 h -8 z"
   style="opacity:1;fill:#808080;fill-opacity:1;stroke:none;stroke-width:8px;stroke-linecap:butt;stroke-linejoin:miter;stroke-opacity:1" /><path
   id="path20194"
   d="m 168,24 h 8 v 8 h 8 v 8 h 8 v 8 h 8 v -8 h 8 v -8 h 8 c 0,0 0,-8 0,-8 h 8 v -8 h 8 V 8 h 16 v 8 h 8 v 8 h -24 v 8 h -8 v 8 h -8 v 8 h -16 v 8 h 8 v 8 h 8 v 8 h 8 v 8 h 8 v 8 h -16 v -8 h -16 v -8 h -8 v -8 h -8 v -8 h -8 V 40 h -8 z"
   style="fill:#808000;fill-opacity:1;stroke:none;stroke-width:8px;stroke-linecap:butt;stroke-linejoin:miter;stroke-opacity:1" /><path
   id="path20196"
   d="m 208,48 h 8 v -8 h 8 v -8 h 8 c 0,0 0,-8 0,-8 h 8 v 8 h -8 v 8 h -8 v 8 h -8 v 8 h -8 z"
   style="fill:#800000;fill-opacity:1;stroke:none;stroke-width:8px;stroke-linecap:butt;stroke-linejoin:miter;stroke-opacity:1" /><path
   id="path20200"
   d="m 72,136 h 8 v 8 h 8 v 8 h 8 v 8 h -8 v -8 h -8 v -8 h -8 z"
   style="fill:#808000;fill-opacity:1;stroke:none;stroke-width:8px;stroke-linecap:butt;stroke-linejoin:miter;stroke-opacity:1" /><path
   id="path20200-3"
   d="m 88,136 h 8 v 8 h 8 v 8 h 8 v 8 h -8 v -8 h -8 v -8 h -8 z"
   style="fill:#808000;fill-opacity:1;stroke:none;stroke-width:8px;stroke-linecap:butt;stroke-linejoin:miter;stroke-opacity:1" /><path
   id="path20200-3-6"
   d="m 104,136 h 8 v 8 h 8 v 8 h 8 v 8 h -8 v -8 h -8 v -8 h -8 z"
   style="fill:#808000;fill-opacity:1;stroke:none;stroke-width:8px;stroke-linecap:butt;stroke-linejoin:miter;stroke-opacity:1" /><path
   id="path20200-3-7"
   d="m 80,136 h 8 v 8 h 8 v 8 h 8 v 8 h -8 v -8 h -8 v -8 h -8 z"
   style="fill:#000000;fill-opacity:1;stroke:none;stroke-width:8px;stroke-linecap:butt;stroke-linejoin:miter;stroke-opacity:1" /><path
   id="path20200-3-7-3"
   d="m 96,136 h 8 v 8 h 8 v 8 h 8 v 8 h -8 v -8 h -8 v -8 h -8 z"
   style="fill:#000000;fill-opacity:1;stroke:none;stroke-width:8px;stroke-linecap:butt;stroke-linejoin:miter;stroke-opacity:1" /><path
   id="path20284"
   d="m 88,168 h 128 v 8 H 88 Z"
   style="fill:#808000;fill-opacity:1;stroke:none;stroke-width:8px;stroke-linecap:butt;stroke-linejoin:miter;stroke-opacity:1" /><path
   id="path20259"
   d="m 88,168 h 40 v 8 H 88 Z"
   style="fill:#800000;fill-opacity:1;stroke:none;stroke-width:8px;stroke-linecap:butt;stroke-linejoin:miter;stroke-opacity:1" /><path
   id="path20261"
   d="m 136,168 h 8 v 8 h -8 z"
   style="fill:#800000;fill-opacity:1;stroke:none;stroke-width:8px;stroke-linecap:butt;stroke-linejoin:miter;stroke-opacity:1" /><path
   id="path20261-5"
   d="m 152,168 h 8 v 8 h -8 z"
   style="fill:#800000;fill-opacity:1;stroke:none;stroke-width:8px;stroke-linecap:butt;stroke-linejoin:miter;stroke-opacity:1" /><path
   id="path20261-6"
   d="m 176,168 h 8 v 8 h -8 z"
   style="fill:#800000;fill-opacity:1;stroke:none;stroke-width:8px;stroke-linecap:butt;stroke-linejoin:miter;stroke-opacity:1" /><path
   id="path20286"
   d="m 72,200 v -8 h 8 v -8 h 8 c 0,0 0,-8 0,-8 h 8 v 8 h -8 v 8 h -8 v 8 z"
   style="fill:#808000;fill-opacity:1;stroke:none;stroke-width:8px;stroke-linecap:butt;stroke-linejoin:miter;stroke-opacity:1" /><path
   id="path20286-2"
   d="m 88,200 v -8 h 8 v -8 h 8 c 0,0 0,-8 0,-8 h 8 v 8 h -8 v 8 h -8 v 8 z"
   style="fill:#808000;fill-opacity:1;stroke:none;stroke-width:8px;stroke-linecap:butt;stroke-linejoin:miter;stroke-opacity:1" /><path
   id="path20286-9"
   d="m 104,200 v -8 h 8 v -8 h 8 c 0,0 0,-8 0,-8 h 8 v 8 h -8 v 8 h -8 v 8 z"
   style="fill:#808000;fill-opacity:1;stroke:none;stroke-width:8px;stroke-linecap:butt;stroke-linejoin:miter;stroke-opacity:1" /><path
   id="path20286-1"
   d="m 80,200 v -8 h 8 v -8 h 8 c 0,0 0,-8 0,-8 h 8 v 8 h -8 v 8 h -8 v 8 z"
   style="fill:#000000;fill-opacity:1;stroke:none;stroke-width:8px;stroke-linecap:butt;stroke-linejoin:miter;stroke-opacity:1" /><path
   id="path20286-1-0"
   d="m 96,200 v -8 h 8 v -8 h 8 c 0,0 0,-8 0,-8 h 8 v 8 h -8 v 8 h -8 v 8 z"
   style="fill:#000000;fill-opacity:1;stroke:none;stroke-width:8px;stroke-linecap:butt;stroke-linejoin:miter;stroke-opacity:1" /></svg>